<?xml version="1.0" standalone="no"?>
<!DOCTYPE svg PUBLIC "-//W3C//DTD SVG 20010904//EN"
 "http://www.w3.org/TR/2001/REC-SVG-20010904/DTD/svg10.dtd">
<svg version="1.0" xmlns="http://www.w3.org/2000/svg"
 width="200.000000pt" height="200.000000pt" viewBox="0 0 200.000000 200.000000"
 preserveAspectRatio="xMidYMid meet">

<g transform="translate(0.000000,200.000000) scale(0.100000,-0.100000)"
fill="#000000" stroke="none">
<path d="M525 1230 c-23 -26 -13 -68 21 -80 14 -6 46 -10 70 -10 38 0 45 -3
42 -17 -3 -15 -16 -19 -76 -21 -55 -2 -72 -6 -72 -17 0 -12 15 -15 71 -15 85
0 109 11 109 49 0 39 -23 55 -89 61 -41 4 -56 9 -56 20 0 12 15 16 68 18 51 2
67 6 67 17 0 12 -15 15 -68 15 -56 0 -72 -4 -87 -20z"/>
<path d="M271 963 c-69 -36 -93 -112 -57 -181 30 -59 127 -84 183 -47 31 21
17 43 -15 26 -11 -6 -38 -11 -60 -11 -114 0 -128 168 -17 196 37 9 90 -18 110
-56 20 -38 16 -74 -7 -78 -15 -3 -18 4 -18 47 l0 51 -45 0 c-75 0 -107 -50
-65 -103 18 -23 26 -25 92 -23 l73 1 9 36 c7 29 5 45 -10 75 -36 72 -109 100
-173 67z m89 -107 c0 -44 -51 -61 -66 -21 -9 21 14 45 42 45 19 0 24 -5 24
-24z"/>
<path d="M560 650 c0 -5 7 -10 15 -10 8 0 15 5 15 10 0 6 -7 10 -15 10 -8 0
-15 -4 -15 -10z"/>
<path d="M1450 560 c0 -82 3 -100 15 -100 12 0 15 18 15 100 0 82 -3 100 -15
100 -12 0 -15 -18 -15 -100z"/>
<path d="M1640 560 c0 -82 3 -100 15 -100 12 0 15 18 15 100 0 82 -3 100 -15
100 -12 0 -15 -18 -15 -100z"/>
<path d="M210 635 c-16 -19 -16 -63 -1 -78 7 -7 40 -14 74 -17 48 -4 63 -9 65
-22 3 -16 -6 -18 -72 -18 -69 0 -76 -2 -76 -20 0 -18 7 -20 68 -20 76 0 112
17 112 54 0 41 -21 55 -85 58 -52 3 -60 6 -60 23 0 18 8 20 63 23 46 2 62 7
62 17 0 22 -132 21 -150 0z"/>
<path d="M637 632 c-22 -24 -22 -56 0 -73 9 -8 43 -16 77 -19 45 -4 61 -9 61
-20 0 -12 -17 -16 -77 -18 -70 -3 -78 -5 -78 -22 0 -18 7 -20 64 -20 81 0 114
12 122 45 10 42 -19 65 -81 65 -34 0 -57 5 -65 15 -20 25 -1 35 66 35 50 0 64
3 64 15 0 24 -131 21 -153 -3z"/>
<path d="M422 588 c-7 -7 -12 -38 -12 -70 0 -45 3 -58 15 -58 12 0 15 13 15
55 l0 55 45 0 c33 0 45 4 45 15 0 19 -90 21 -108 3z"/>
<path d="M560 530 c0 -56 3 -70 15 -70 12 0 15 14 15 70 0 56 -3 70 -15 70
-12 0 -15 -14 -15 -70z"/>
<path d="M830 555 c0 -36 6 -52 25 -71 22 -21 33 -25 78 -22 l52 3 3 68 c2 55
0 67 -13 67 -11 0 -15 -12 -15 -50 l0 -50 -44 0 c-48 0 -56 9 -56 66 0 24 -5
34 -15 34 -11 0 -15 -12 -15 -45z"/>
<path d="M1024 586 c-3 -7 -4 -38 -2 -67 2 -40 7 -54 18 -54 11 0 16 14 18 53
3 51 4 53 30 50 25 -3 27 -7 30 -55 2 -38 7 -53 18 -53 10 0 14 14 14 55 0 48
3 55 19 55 17 0 20 -8 23 -52 2 -39 7 -53 18 -53 19 0 26 85 10 115 -10 18
-20 20 -101 20 -67 0 -91 -4 -95 -14z"/>
<path d="M1260 552 c0 -71 16 -86 86 -87 l59 0 3 68 c2 55 0 67 -13 67 -11 0
-15 -12 -15 -51 l0 -50 -42 3 -43 3 -3 48 c-2 33 -7 47 -18 47 -10 0 -14 -13
-14 -48z"/>
<path d="M1520 570 l-35 -30 45 -40 c25 -22 54 -40 65 -40 16 0 12 7 -20 41
l-40 40 35 29 c35 29 35 29 10 30 -15 0 -41 -13 -60 -30z"/>
<path d="M1680 585 c0 -11 11 -15 40 -15 l40 0 0 -55 c0 -42 3 -55 15 -55 12
0 15 13 15 58 0 32 -5 63 -12 70 -18 18 -98 16 -98 -3z"/>
<path d="M1850 585 c0 -11 12 -15 46 -15 l45 0 -3 -37 c-3 -37 -4 -38 -43 -38
-51 0 -57 28 -7 33 43 4 44 32 1 32 -46 0 -69 -16 -69 -50 0 -19 7 -33 19 -40
30 -15 97 -12 115 6 19 18 22 94 4 112 -18 18 -108 16 -108 -3z"/>
</g>
</svg>
